<!-- <svg width="16" height="16" viewBox="0 0 16 16" fill="none" xmlns="http://www.w3.org/2000/svg">
<path d="M10.54 2.65667H12.0007V0.112667C11.7487 0.078 10.882 0 9.87267 0C7.76667 0 6.324 1.32467 6.324 3.75933V6H4V8.844H6.324V16H9.17333V8.84467H11.4033L11.7573 6.00067H9.17267V4.04133C9.17333 3.21933 9.39467 2.65667 10.54 2.65667V2.65667Z" fill="white"/>
</svg> -->

<svg xmlns="http://www.w3.org/2000/svg" width="20" height="20" fill="none" viewBox="0 0 24 24">
    <path d="M12 0C5.373 0 0 5.373 0 12c0 2.116.552 4.106 1.606 5.89L0 24l6.272-1.628A11.949 11.949 0 0012 24c6.627 0 12-5.373 12-12S18.627 0 12 0zm5.994 17.338c-.265.744-1.28 1.367-2.098 1.53-.558.111-1.263.2-3.659-.781-3.065-1.271-5.019-4.4-5.175-4.613-.149-.208-1.236-1.65-1.236-3.15 0-1.5.785-2.237 1.061-2.537.276-.3.607-.375.81-.375.2 0 .405.002.584.011.188.01.437-.07.68.525.265.63.901 2.154.982 2.313.08.16.136.351.03.562-.1.216-.15.348-.3.531-.149.182-.314.408-.448.547-.15.159-.304.333-.131.653.174.322.776 1.273 1.662 2.066 1.142 1.015 2.118 1.333 2.442 1.493.323.159.51.136.697-.083.187-.218.797-.923 1.013-1.237.216-.313.426-.271.71-.16.286.111 1.816.857 2.132 1.015.316.16.528.24.606.375.074.132.074.765-.191 1.508z" fill="#25D366"/>
  </svg>
  